<svg xmlns="http://www.w3.org/2000/svg" xml:space="preserve" viewBox="0 0 2048 1152">
  <path d="M1701 661v8h-69l-1 4v45c0 4 2 5 5 5h73c5 0 7 1 6 5v20c0 5-1 6-5 6h-94l-19-1a34088 34088 0 0 1 0-194h116l1 4v22l-1 4-81 1-1 5v41c0 4 2 5 5 5h65v20zm-642-101 34-1 1 6v153c0 4 2 5 5 5h72v15c0 5 2 12-1 15-2 2-9 1-14 1h-92l-5-1V560zm677-1a14477 14477 0 0 1 140 0l1 29c0 3-1 3-4 3h-48v157c0 5-1 7-6 6h-24c-4 0-5-1-5-5V591h-51c-3 0-4-1-4-4l1-28zm-428 14 27 73 24 69 14 38-5 1h-25c-7 0-9-3-11-9l-11-36-4-2h-68c-4 0-4 2-5 4l-9 28-4 13-4 2h-28c-4 0-5-1-3-4l27-78 19-53 19-53c2-5 4-8 9-7h29c3 0 5 1 6 3l3 11m-27 28-27 78h57l-6-18-20-61-3-2-1 3zm119-41h-1 1zm-1 193 1 1-1-1zm-497 1-1-1V559h71l3 1h2l6 1 5 2h3l3 1 3 1 2 1c19 9 29 24 32 44 1 9-1 19-2 29-1 12-8 21-16 29a71 71 0 0 1-40 17l-33 1c-3 0-4 1-4 5v59l-2 4h-32m51-165h-17v65c0 3 1 4 3 4l25-1c12-1 21-6 27-17 5-8 5-17 3-26-1-12-8-20-20-23l-21-2zm482 164v1h-34V559h38l2 1 3 6 53 87 25 43 2 3 1-1-1-3V561l3-2h28c3 0 3 2 3 5v185c0 4-1 5-4 5h-29c-4 0-7-2-9-5l-61-102-14-23-2-5-4-4v138z" style="fill:#a2a2a2;fill-opacity:1;stroke:none;stroke-opacity:1"/>
  <path d="m763 531 3-28c1-5 0-11-2-16 0-3-2-6-5-10 1-2 1-7-3-10-1-1-2-4-1-5 0-1 2-3 4-3 8-1 15 7 14 15v3c8 6 7 16 9 24 1 9 0 17-1 25v1c-5 9-3 20-7 29-3 5-7 3-11 3-3 0-3-3-4-6-2-8 3-14 4-22zM552 382l-10-2c-4 0-8-1-12 1-5 2-7 1-7-4l1-18 4-7c4-10 7-20 16-26l13-11 5-1c6-1 11-2 16-6 4-3 11-3 16-3 13 0 26 2 38 8 8 5 15 11 21 17 4 4 8 9 10 14 2 4 2 9 3 14v4c5 4 4 9 2 14l-3 3-16 1c-7 0-15-1-22 1-5 1-9 6-13 11-3 3-3 7 0 12 5 9 13 12 22 12h28c3 0 7 1 8 3 1 1 0 5-1 8l-4 1-37-1c-7 0-18 12-18 20 0 7 8 15 17 15h38c5 0 6 1 6 6v41c-1 27-11 50-33 66-7 6-16 8-25 11s-18 1-27 1c-8 1-17-1-24-7-2-2-6-1-7-3l-18-16-5-10-8-17c-2-3-4-7-2-11 1-3-1-7-1-10v-7c0-3 2-6-1-9l-1-2 1-23c1-7 5-10 12-10l29 1 6-2 6-4c6-3 8-9 6-15-4-12-14-13-23-14h-29c-7 0-9-2-9-7 0-3 1-4 4-4l31-1c11 0 19-5 23-15 3-6-1-14-7-17l-2-1c-5-6-11-4-17-1zm282 124-2 27-5 20v4l-4 11-3 13-2 3c-3 2-3 5-3 8l-3 4c-3-1-9 3-10-4v-1c4-9 0-19 8-27l1-3 3-24c1-5 4-10 4-14a286 286 0 0 0-4-47l-2-10-1-14-3-10c-1-4-3-7-7-9-2 0-3-5-4-8l5-3h7c5 0 6 2 5 7l-1 3c0 5 1 6 6 5l5 12c2 7 6 14 4 23v2c4 5 1 11 4 16v1c-5 5 1 8 2 13v2zM568 718zm-15 0zm-24 1zm252-237c7 17 7 34 3 51l-7 24c-2 8-8 11-15 9-8-3-11-9-8-17l7-25c4-14 0-27-5-40-1-4-4-7-6-11-4-7-2-13 4-17 8-4 15-3 18 5 4 6 6 13 9 21m-18 50c-1 7-6 13-4 21 1 3 1 6 4 6 4 0 8 2 11-3 4-9 2-20 7-29v-1c1-8 2-16 1-25-2-8-1-18-9-24v-3c1-8-6-16-14-15-2 0-4 2-4 3-1 1 0 4 1 5 4 3 4 8 3 10 3 4 5 7 5 10 2 5 3 11 2 16l-3 29zM572 391l-4-4-1-1-4-1h-46v-13l2-8v-3l4-10v-2l4-7 1-3a80 80 0 0 1 121-19c15 14 24 31 26 52l1 3v10h-50l-2 2-7 8v7l6 7 8 2h46v22h-47c-3 0-6 3-9 4l-4 6 2 10 4 4 8 2h45l1 54v2c-3 21-10 40-25 55l-3 2-5 4-1 1-3 2-3 2-2 2-6 2-2 2h-3l-3 2h-3l-5 2h-5l-5 1h-13l-5-1a53 53 0 0 1-9-2c-29-8-46-27-55-56l-2-5v-3l-1-3v-2l-1-4v-57h45l7-2 6-6v-10l-6-6-8-2h-44v-20l5-2h37l8-2 6-7 1-3v-2l-1-4-1-2m-19-9c5-3 11-5 16 1l2 1c6 3 10 11 7 17-4 10-12 15-23 15l-31 1c-3 0-4 1-4 4 0 5 2 7 9 7h29c9 1 19 2 23 14 2 6 0 12-6 15l-6 4-6 2-29-1c-7 0-11 3-12 10l-1 23 1 2c3 3 1 6 1 9v7c0 3 2 7 1 10-2 4 0 8 2 11l8 17 5 10 18 16c1 2 5 1 7 3 7 6 16 8 24 7 9 0 18 2 27-1s18-5 25-11c22-16 32-39 33-66v-41c0-5-1-6-6-6h-38c-9 0-17-8-17-15 0-8 11-20 18-20l37 1 4-1c1-3 2-7 1-8-1-2-5-3-8-3h-28c-9 0-17-3-22-12-3-5-3-9 0-12 4-5 8-10 13-11 7-2 15-1 22-1l16-1 3-3c2-5 3-10-2-14v-4c-1-5-1-10-3-14-2-5-6-10-10-14-6-6-13-12-21-17-12-6-25-8-38-8-5 0-12 0-16 3-5 4-10 5-16 6l-5 1-13 11c-9 6-12 16-16 26l-4 7-1 18c0 5 2 6 7 4 4-2 8-1 12-1l11 2zm242 37c9-7 16-6 22 3a197 197 0 0 1 18 118c-3 18-8 36-16 54-3 7-9 10-16 7-6-3-9-10-6-17 10-24 16-50 16-76-1-26-5-52-19-75-2-5-2-9 1-14m39 86v-1c-1-5-7-8-2-13v-1c-3-5 0-11-4-16v-2c2-9-2-16-4-23l-5-12c-5 1-6 0-6-5l1-3c1-5 0-7-5-7h-7l-5 3c1 3 2 8 4 8 4 2 6 5 7 9l3 10 1 14 2 10 3 18 1 29c0 4-3 9-4 14l-3 24-1 3c-8 8-4 18-8 27v1c1 7 7 3 10 4l3-4c0-3 0-6 3-8l2-3 3-13 4-11v-4l5-20 2-28zM515 730l2 3-2-3zm1-6v3-3zm68-44c3 2 2 4 0 7v-7zm-3 38v-2c5-2 2-7 3-10l3 8c0 6-1 6-6 4zm40 25h-75l-15 1c-7-1-12-4-14-11l-2-4 1-1 1-4c2-7 7-9 14-9l50 1v2h-34l-18 1c-6 0-10 3-10 8 0 6 3 11 8 13h68l22 1 4 2zM434 625v2-2zm-31 83h-2 2zm53-394v8-8zM311 605c-1-7-6-11-10-16l-1-2c-1-6-1-11-3-16-2-4-2-8 2-11-7-6-7-7-4-13l-2-2 2-7h-6l-4-31 1-23-1-14v-6c5-7 7-15 7-23l3-13c1-4 3-8 10-6-4-5-11-9-4-15 1-7 6-8 12-10-2-5 2-10-1-14-1-1 1-3 2-5l7-12 1-1c7-1 6-7 8-12l8-8 7-8 3-5c2-3 4-4 7-1 2 2 3 2 4-1l6-13c1-3 3-3 6-1l3 3 4 2 1-3 4-7c-1-1-4-4-3-5l5-3c4-3 8-8 15-8l1-2 3-3c9-1 16-5 22-10 4-3 14-1 17 2l1 4 1 8 2 9 4 8v7l-3 12-4 7c2 3 0 8-3 13l-1 4c0 6-2 10-8 11l-5 5c-3 7-6 8-13 6h-2l-16 10c-2 2-3 5-6 6-4 1-8 5-10 8-3 4-4 8-5 12s-4 8-1 12l-1 4c1 3 0 7 2 10 1 6 6 11 3 18v4c2 8 0 14-9 15l-5 4c-3 1-7 4-11 4-6 0-11 6-18 4-4 0-8 4-8 7 1 6-2 10-5 15-4 6-3 17 2 21l3 6c0 3 1 6 4 7l4 3c6 5 13 8 22 7l33 3 7 6 6 4c4 1 7 3 8 7s3 6 7 9c3 1 5 6 6 10l3 33c2 12-3 22-8 33s-9 22-8 34l-1 7-4 2h-6l-7-4a231 231 0 0 1-12-9l-2-3c-7-1-15-7-17-14-1-5-3-8-8-9-3-1-5-3-6-6-3-4-6-9-11-10l-3-3c0-4-2-7-5-10-3-2-3-6-5-9l-2-5-11-14zm276 44v1-1zm125-162v-1h1l-1 1zM587 654v59l-3-7v-19c2-3 3-5 0-7v-26h3zm0 0v-5c0-3-2-4-5-5a120 120 0 0 1-81-44c-5-6-11-13-14-20-5-10-9-21-12-32-3-8-4-18-5-27l2-19 1-3c-4-5-1-9 0-14l4-2c2 3 9-3 10 3l1 26c1 7-2 15 1 22v2c0 4-1 8 1 11 7 13 15 27 24 39 5 8 13 13 20 19 10 9 22 13 35 17 16 5 32 4 48 1a109 109 0 0 0 66-40l8-6 2-9c4-10 9-20 11-31 3-11 2-22 3-34v-2l10 1-2-4-4-6 6-3 4 6 2 6-2 33-1 11-4 9c2 6-1 11-3 16l-18 29c-2 3-4 4-7 0-4 15-14 22-25 27l-28 13-11 1c-9 0-16 6-16 15v53c0 10 1 11 11 11h49c6 0 12-2 17-6 19-16 36-35 51-54 1-3 4-4 6-6l2-3c1-9 7-15 13-22 2-2 8-2 13-1 1 0 4 5 4 8l-5 11-20 29a276 276 0 0 1-91 81c-14 7-29 13-45 19l-31 10-15 2h-3c-8 3-16 3-24 5h-4l-19-1h-29l-24-3c-6-1-12-1-16-6l-10-1-8-1c-19-7-38-13-55-23-22-13-44-26-61-45l-30-32a303 303 0 0 1-36-59c-5-9-8-19-12-29l-2-8-4-14c-3-8-5-16-3-25v-1c-5-8-4-17-4-26l-2-25 2-15v-8l1-14v-4c0-4 1-8 6-8 3 0 4-2 1-4l-4-4 3-10 1-6 6-21c10-28 23-55 41-80l18-22 12-12a274 274 0 0 1 111-69l3 1c5 2 8 1 12-3 1-2 3-3 5-3l11-2 18-5 17-2h36a304 304 0 0 1 171 59c17 14 34 28 47 45l26 36 13 23c3 6 2 8-3 13-3 3-4 6-9 4l-5-4c-10-19-22-37-36-55-12-15-26-27-40-39-10-10-22-16-34-24l-32-16c-5-3-11-4-16-6-13-5-26-8-39-10l-15-3c-19-3-39-3-59-1-7 0-15 0-22 2l-22 5-37 12c-19 8-37 18-53 31a241 241 0 0 0-79 90c-7 13-12 27-18 41-7 15-10 31-12 46-4 21-6 43-3 64l3 36 3 10 1 8 2 7 5 10c6 14 11 28 18 41l31 46 15 17 19 17 16 12c3 3 6 6 11 8 7 2 13 7 19 11 1 1 3 3 3 5 1 3 2 3 4 2h6l18 9c3 2 7 2 11 3l13 6 10 2 14 2 52 4c6 1 11-1 16-1l17-2c12-2 25-6 37-7 5-1 9-4 14-4 8 1 13-4 19-8 2-1 3-3 0-6l-4-2-22-1h-68c-5-2-8-7-8-13 0-5 4-8 10-8l18-1h34c5 2 6 2 6-4v-60zM295 290c0-1 0 0 0 0zm36 357-1-1-3-3-1-2-2-3-10-15-1-2-12-23-2-3-3-8-1-2-2-7-2-4v-2l-2-3-1-6-1-2v-3l-2-5v-3l-2-6v-4l-2-7v-6l-1-5v-2l-1-5v-35l1-7v-2l1-6v-5l2-8v-3l2-6v-3l2-5v-3l2-5 2-8 2-4 1-3 1-2 3-8 1-2 3-7 1-2 1-2 1-2 1-2 1-2c12-22 26-42 43-59l37-30 36-18 13-5c3-2 5-1 7 2 7 13 12 26 13 41v9c-4 33-21 55-51 66-13 4-22 12-26 25-3 11-1 22 3 33l3 10c1 15-12 29-28 30l-12 2a29 29 0 0 0 11 57c8 0 16 0 24 2 29 9 57 38 54 77v3l-4 14c-11 21-14 44-11 68v5l-5-1-11-6-2-1-6-3-7-4v-1l-5-3-2-1-22-18-3-3-15-15-2-2-4-4-1-2-3-4m-19-42 10 14 2 5c2 3 2 7 5 9 3 3 5 6 5 10l3 3c5 1 8 6 11 10 1 3 3 5 6 6 5 1 7 4 8 9 2 7 10 13 17 14l2 3 4 3 8 6 7 4h6l4-2 1-7c-1-12 3-23 8-34s10-21 8-33l-3-33c-1-4-3-9-6-10-4-3-6-5-7-9s-4-6-8-7l-6-4-7-6-33-3c-9 1-16-2-22-7l-4-3c-3-1-4-4-4-7l-3-6c-5-4-6-15-2-21 3-5 6-9 5-15 0-3 4-7 8-7 7 2 12-4 18-4 4 0 8-3 11-4l5-4c9-1 11-7 9-15v-4c3-7-2-12-3-18-2-3-1-7-2-10l1-4c-3-4 0-8 1-12s2-8 5-12c2-3 6-7 10-8 3-1 4-4 6-6l16-10h2c7 2 10 1 13-6l5-5c6-1 8-5 8-11l1-4c3-5 5-10 3-13l4-7 3-12v-7l-4-8-2-9-1-8-1-4c-3-3-13-5-17-2-6 5-13 9-22 10l-3 3-1 2c-7 0-11 5-15 8l-5 3c-1 1 2 4 3 5l-4 7-1 3-4-2-3-3c-3-2-5-2-6 1l-6 13c-1 3-2 3-4 1-3-3-5-2-7 1l-3 5-7 8-8 8c-2 5-1 11-8 12l-1 1-7 12c-1 2-3 4-2 5 3 4-1 9 1 14-6 2-11 3-12 10-7 6 0 10 4 15-7-2-9 2-10 6l-3 13c0 8-2 16-7 23v6l1 14-1 23 4 31h6l-2 7 2 2c-3 6-3 7 4 13-4 3-4 7-2 11 2 5 2 10 3 16l1 2c4 5 9 9 11 16zm383 0-1 1-15 14h-1l-16 11c-13 8-27 12-41 15l-2 1c-5-1-6 1-6 6v57c0 4 0 5 4 5h56l4-1 22-19 4-4c18-18 32-37 46-58 2-4 6-8 10-11 11-2 16 2 19 12v2l-2 5-21 32a288 288 0 0 1-198 120 299 299 0 0 1-299-449c7-13 17-25 25-38l2-2 8-10 4-4 1-1a383 383 0 0 0 9-9l1-1 1-1 1-1 1-1v-1h1l9-7c26-24 56-41 90-53l4-2h2l4-2h2l3-2 6-1 2-1h3l5-2h4l5-2h5l2-1 2-1h7l4-1h2l3-1h7l5-1h6l38-1 5 1 6 1h6l10 2h6l2 1 4 1h3l2 1h2l2 1 6 1 2 1h3l5 2 11 3 2 1 9 3 2 1 3 1 2 1 3 1 2 1 7 3 2 1 6 3 2 1 2 1 2 1 4 2c23 13 44 28 63 46l22 23 22 29 21 39c3 6 0 12-6 15-9 4-15 2-20-8a271 271 0 0 0-60-78 269 269 0 0 0-122-65l-3-1-6-1-3-1-9-1-3-1h-9l-3-1-5-1h-44l-4 1h-4l-3 1h-7l-3 1-2 1h-7l-3 1-6 1-2 1-6 1-3 2h-4l-3 2-9 2-3 2c-19 6-36 15-52 26-12 8-24 18-35 28l-12 11-14 16-13 17-2 2a273 273 0 0 0 202 423c28 3 56 1 83-7l39-12 4-4c3 3 2 5 0 6-6 4-11 9-19 8-5 0-9 3-14 4-12 1-25 5-37 7l-17 2c-5 0-10 2-16 1l-52-4a178 178 0 0 1-24-4l-13-6c-4-1-8-1-11-3l-18-9h-6c-2 1-3 1-4-2 0-2-2-4-3-5-6-4-12-9-19-11-5-2-8-5-11-8l-16-12-19-17-15-17-31-46c-7-13-12-27-18-41l-5-10-2-7-1-8-3-10-3-36c-3-21-1-43 3-64 2-15 5-31 12-46 6-14 11-28 18-41a247 247 0 0 1 79-90c16-13 34-23 53-31l37-12 22-5c7-2 15-2 22-2 20-2 40-2 59 1l15 3c13 2 26 5 39 10 5 2 11 3 16 6l32 16c12 8 24 14 34 24a294 294 0 0 1 76 94l5 4c5 2 6-1 9-4 5-5 6-7 3-13l-13-23-26-36c-13-17-30-31-47-44a280 280 0 0 0-171-60h-36l-17 2-18 5-11 2c-2 0-4 1-5 3-4 4-7 5-12 3l-3-1a303 303 0 0 0-111 69l-12 12-18 22c-18 25-31 52-41 80l-6 21-1 6-3 10 4 4c3 2 2 4-1 4-5 0-6 4-6 8v4l-1 14v8l-2 15 2 25c0 9-1 18 4 26v1c-2 9 0 17 3 25l4 14 2 8c4 10 7 20 12 29a250 250 0 0 0 36 59l30 32c17 19 39 32 61 45 17 10 36 16 55 23l8 1 10 1c4 5 10 5 16 6l24 3h29l19 1h4c8-2 16-2 24-5h3l15-2 31-10a290 290 0 0 0 136-100l20-29 5-11c0-3-3-8-4-8-5-1-11-1-13 1-6 7-12 13-13 22l-2 3c-2 2-5 3-6 6-15 19-32 38-51 54-5 4-11 6-17 6h-49c-10 0-11-1-11-11v-53c0-9 7-15 16-15l11-1 28-13c11-5 21-12 25-27 3 4 5 3 7 0l18-29c2-5 5-10 3-16l4-9 1-11a1264 1264 0 0 0 0-39l-4-6-6 3 4 6 2 4-10-1v2c-1 12 0 23-3 34-2 11-7 21-11 31l-2 9-8 6a109 109 0 0 1-66 40c-16 3-32 4-48-1-13-4-25-8-35-17-7-6-15-11-20-19-9-12-17-26-24-39-2-3-1-7-1-11v-2c-3-7 0-15-1-22l-1-26c-1-6-8 0-10-3l-4 2c-1 5-4 9 0 14l-1 3-2 19a133 133 0 0 0 17 59c3 7 9 14 14 20a120 120 0 0 0 81 44c3 1 5 2 5 5v5h-3c-1-3 0-6-4-7-21-2-39-10-56-20l-2-2-4-4c-26-20-44-46-49-79-3-17-2-34-2-51l2-6c2-6 7-8 12-8s9 5 10 10l1 14c1 13 0 27 3 40 6 26 20 47 42 62 33 22 68 25 103 9 37-16 57-45 61-85l1-30v-9c2-7 6-11 11-11 6 0 11 4 12 11l2 36c0 15-3 29-9 43l-18 33-5 5m17-118 1-1h-1v1zm411-102h6-6zm12 0zm193 40-14 36c-1 3-3 4-7 4h-23l-4-2-14-38-13-36-20-52c-1-3 0-4 4-4l16-1c6 0 8 1 10 7l29 86 6 5 4-5 10-31 14-39 6-18c1-2 3-5 5-5h25l-34 93zm427-108v-3 3zm-586 70h4-4zm-17 0h5-5zm-32 0v-2h15l43 1 2-1h4v2a99 99 0 0 1-15 0h-49zm-185 51h-2V302h2v136zm-2-136c-2-4 2-5 4-5 14 0 29-1 43 1 22 4 39 17 48 38 11 24 11 49-2 72a65 65 0 0 1-57 35h-32c-3 0-5 0-4-5h2l4 2 30-1c22-1 40-11 52-29 12-19 13-40 8-61-5-24-27-46-54-48l-36-1-4 2h-2zm849-39h-26l11-1 15 1zm4 21v-10 10zm1 58-2-2a1353 1353 0 0 1 2 2zm-34 22 1 5v74l-1 5v-84zm-374-92-1 1c-2-4 0-5 4-4l-3 3zm-50 61c2-5 5-5 10-5h28l-1 3a110 110 0 0 0-4 12l-1 3-4 9v2l-4 9-1 2-1 3v2l-4 9-1 2-1 3v2a361 361 0 0 0-9 22l-1 3v2l-1 2-1 3-1 2-1 4-1 2-1 3-2 4-2 7-2 3v2l-1 2-3 9-1 2-4 9h-35l-1-2-1-2a969 969 0 0 0-3-9l-1-2v-2l-2-2-4-14-2-4-3-8-1-2v-2l-2-2-1-5-1-2v-2l-2-4-4-12-2-4a1649 1649 0 0 1-2-5l-1-3-1-2v-2l-2-4a737 737 0 0 1-4-12l-2-3v-2l-2-2-1-5-1-2-1-3-1-2v-2l-2-2-2-7c-1-3 0-4 4-4h31a6183 6183 0 0 1 35 96l2-2 10-31 1-2a174 174 0 0 1 3-8v-2l2-4v-2l4-9v-2l2-4v-2l2-4v-2l2-4 3-8 1-3v-2m-1 91 34-92h-25c-2 0-4 3-5 5l-6 18-14 39-10 31-4 5-6-5-29-86c-2-6-4-7-10-7l-16 1c-4 0-5 1-4 4l20 52 13 36 14 38 4 2h23c4 0 6-1 7-4l14-37zm460-41-1 1 1-1zm-32 84h27l-2 1-23 1-2-2zm27-3v-65l2 8v52l-2 5zm-28-200v191l-2-4v-3l1-5v-74l-1-5v-3l1-7v-83l1-7zm28 109V263h3v41l-1 36 1 2v7l-1 16-2 8zm-28-109 1-1a1200 1200 0 0 1 27 0v121c0 4 3 6 6 3l15-16 32-37 4-2h30l-3 5-33 36-12 13c-3 4-3 7 0 11l48 62 2 5-5 2h-21c-2 0-5-1-6-3l-42-57c-2-2-2-5-2-8l-3 2c-4-4-8-7-14-7l4 6a6282 6282 0 0 1 0 67l-27 1-1-12V264zm-565 75c-3 1-8 8-7 10 1 3 9 7 14 5l2 7c0 3-1 4-4 4l-4-1c-2 0-3-1-3-2-1-7-5-9-12-6l10 12 2 8v9l-4 2v-2c2-11-2-20-10-26-18-14-44-9-54 18v10l-3-6c2-18 17-32 35-33 8 0 8-1 6-9l13 2 1 1-10 7 11 5 2-5 6 2-1-12c1-1 6 2 5-4l5 4zm0 0c14 9 19 23 22 39l1 18c0 4-2 6-6 6l-7 1h-9c-7 2-14-4-21 0l-6 1h-41c-6 0-7 1-7 8 1 11 7 20 17 26 11 8 24 9 38 8 12 0 23-3 34-8 3-1 5 0 5 3v16c0 2-2 4-3 4-11 3-21 7-32 9-12 1-25 1-37-2-24-7-40-22-46-46-2-8-1-17-1-25l1-21c6-25 21-42 47-47 7-2 15-2 23-1s15 3 23 7c1 6-4 3-5 4l1 12-6-2-2 5-11-5 10-7-1-1-13-2c2 8 2 9-6 9-18 1-33 15-35 33l3 6h64l4-2v-9l-2-8-10-12c7-3 11-1 12 6 0 1 1 2 3 2l4 1c3 0 4-1 4-4l-2-7c-5 2-13-2-14-5-1-2 4-9 7-10zm-284-2v-59c0-4 1-6 6-6h62c26 2 50 11 68 32 11 15 17 32 19 50 2 13 1 26-1 39-6 29-20 52-48 64-9 4-19 7-29 8-8 2-16 0-23 0l-17 1h-27c-7 1-10-1-10-8v-86l-1-21 1-14m27-34v136c-1 4 1 4 4 4h32c25-1 44-13 57-35 13-23 13-48 2-72-9-21-26-34-48-38-14-2-29-1-43-1-2 0-6 1-4 6zm778 123v32c0 7-1 8-7 7-19-1-16-4-16-18l-1-25 1-11c-1-17 0-34 1-51l-1-38 1-22-1-26c0-8 1-9 9-9 16 0 14-2 14 14l-1 42 1 38-1 45 1 22zm-105-68c0-1 0 0 0 0zm2 1c1 0 0 1 0 0zm-14-6v1l-4 1v-1l3-1h1zm9 4h-4l-2-1-3-1v-2c7 0 7 0 9 4zm-19-4-8-1-5-1h17l5 2-3 1-6-1zm-33 6-1-3c7-2 13-6 21-5l5 1 8 2-11 1-11 1-2 1-9 2zm57 44c8-1 10 1 10 9 0 10-2 18-8 26-10 12-38 15-48 4-9-9-10-31 9-36 10-3 21-2 32-3h5m-2 33c8-7 9-17 9-27l-4-3h-13l-26 3c-8 2-13 8-13 16 0 9 4 16 11 18 13 5 25 3 36-7zm-62-74-2 1-2 1h-1v1l-3 1-3-1v-24c0-5 1-8 6-9l2-1a275 275 0 0 1 26-6l4-1h2l7-1h10l11 2h4l5 2a1265 1265 0 0 1 13 5l5 4 8 7v1l4 5 2 5 5 18v94c0 3-1 5-4 4h-24c-3 1-4-1-4-4v-11h1c3 1 3 3 2 5 0 6 1 7 7 7l14-1c3 0 5-1 5-5v-82c0-14-4-28-16-39-8-7-18-10-28-12-20-2-39 0-58 7-5 2-6 4-6 9l1 13 3 2 10-3 1 3-7 3zm-165-90h2v15l-1 7-2-5-1-16 2-1zm-1 27-1-2a2779 2779 0 0 1 56 2h-55zm4-30h140l2 3v24l-3 3-49-1-1-1h46c4 0 6-1 6-6v-14c0-5-2-6-6-6h-129l-7 1h-2l3-3zm57 153v39c0 5 1 6 5 6h17c5 0 6-1 6-5V303h1v162c0 3-1 4-4 4h-23c-3 0-4-1-4-4V303h2v119zm355-45zm-183-12-2-1-1-2 5 3h-2zm175-105v3h-4l-15-1-11 1-1 1-1 7v83l-1 7V261l33-1zm-173 105 4 5c3 6 0 13-8 13-12 0-25-1-37 1-9 2-19 3-27 10-10 7-16 16-16 28 0 7 0 14 2 21 4 16 19 27 38 28 16 1 31-3 41-17 2-3 4-4 6 1h-1l-3 2a52 52 0 0 1-56 16c-20-7-32-24-31-46 0-8 4-16 6-25l16-15h2l3-2h2l3-2h3l5-2h3l10-2h35v-8l-2-3v-3h2zm181 12 4-4 4-5 17-18 16-19 6-4h36l2 1-2 3-46 50-2 3c-6 8-6 8 0 17l53 67 1 2-3 1h-32c-5 0-8-2-11-6l-46-61-4-5v66c0 4-1 6-5 6l-29-1v-19l2 4 1 12 2 2 23-1 2-2v-2l2-5v-52l-2-8-4-6c6 0 10 3 14 7l3-2c0 3 0 6 2 8l42 57c1 2 4 3 6 3h21l5-2-2-5-48-62c-3-4-3-7 0-11l12-13 33-36 3-5h-30l-4 2-32 37-15 16c-3 3-6 1-6-3v-11l2-8 1-15 1 27 1 5 4-3 1-2h1m-6 6-1 1 1-1zm-668 29v1l1 2c3 13 11 21 23 25l3 1 5 1 4 1h17l4-1 9-1 3-1 10-3 3-2 10-4 1 3a940 940 0 0 1-2 29l-3 2h-1l-3 2h-2l-3 2h-3l-5 2h-3l-6 2h-5l-4 1h-24l-5-1h-3l-5-2h-2l-4-2-3-1-2-1-13-7-11-12a79 79 0 0 1-15-56c1-16 5-32 16-45 18-22 42-28 69-21 13 3 24 10 32 21 13 17 15 37 14 58l-2 3-92-1c-4 0-4 2-3 5m70-74-6-3a73 73 0 0 0-45-6c-26 5-41 22-47 47l-1 21c0 8-1 17 1 25 6 24 22 39 46 46 12 3 25 3 37 2 11-2 21-6 32-9 1 0 3-2 3-4v-16c0-3-2-4-5-3-11 5-22 8-34 8-14 1-27 0-38-8-10-6-16-15-17-26 0-7 1-8 7-8h41l6-1c7-4 14 2 21 0h9l7-1c4 0 6-2 6-6l-1-18c-3-16-8-30-22-40zm-138 87-2 4-2 3c-8 7-14 15-22 21-17 13-38 17-59 18h-61l-4-2V275l-1-5 4-1h72c9 0 18 3 26 5a92 92 0 0 1 39 25l4 5a118 118 0 0 1 6 121m-146-88-1 14 1 21v86c0 7 3 9 10 8h27l17-1c7 0 15 2 23 0 10-1 20-4 29-8 28-12 42-35 48-64 2-13 3-26 1-39-2-18-8-35-19-50a89 89 0 0 0-68-32h-62c-5 0-6 2-6 6v59zm776-77 34 1v209h-33l-1-5V260m29 166-1-22 1-45-1-38 1-42c0-16 2-14-14-14-8 0-9 1-9 9l1 26-1 22 1 38c-1 17-2 34-1 51l-1 11 1 25c0 14-3 17 16 18 6 1 7 0 7-7v-32zm-103-64h-1l-2-2a1055 1055 0 0 0-12-7l-5-2h-17c-8-1-14 3-21 5l-10 3-3-2-1-13c0-5 1-7 6-9 19-7 38-9 58-7 10 2 20 5 28 12 12 11 16 25 16 39v82c0 4-2 5-5 5l-14 1c-6 0-7-1-7-7 1-2 1-4-2-5-2-5-4-4-6-1-10 14-25 18-41 17-19-1-34-12-38-28-2-7-2-14-2-21 0-12 6-21 16-28 8-7 18-8 27-10 12-2 25-1 37-1 8 0 11-7 8-13l-4-5-5-3m0 41h-5c-11 1-22 0-32 3-19 5-18 27-9 36 10 11 38 8 48-4 6-8 8-16 8-26 0-8-2-10-10-9m0-43s1-1 0 0m-2-2s0-1 0 0zm-136 112-1 1a1844 1844 0 0 1-34-1V306c0-4-1-6-5-6h-53v1-1l1-1h55v-2h-56l1-8 2 5 1-7v-15l7-1h129c4 0 6 1 6 6v14c0 5-2 6-6 6h-46l1 1 49 1 3-3v-24l-2-3h3v27c1 4-1 5-4 5l-45-1c-5 0-6 2-6 7v163m-31-48V303h-2v162c0 3 1 4 4 4h23c3 0 4-1 4-4V303h-1v159c0 4-1 5-6 5h-17c-4 0-5-1-5-6v-40z" style="fill:#16c0b5;fill-opacity:1;stroke:none;stroke-opacity:1"/>
  <path d="M403 708c-39-21-76-60-98-103-17-34-24-61-25-100a241 241 0 0 1 150-231c11-4 11-4 17 9 14 30 9 65-13 87-7 7-12 10-25 17-18 8-24 13-29 22-3 7-3 26 1 37 2 4 3 10 3 13 0 14-14 28-29 28-11 0-24 9-28 20-3 8-1 19 4 26 6 9 13 12 31 14 23 1 34 6 48 20a68 68 0 0 1 15 84c-6 14-8 30-7 48l-1 16-14-7z" style="fill:#16c0b5;fill-opacity:1;stroke-width:1.3889;stroke:none;stroke-opacity:1"/>
  <path d="m902 753-1-97v-97h35c43 0 52 2 67 10 12 7 20 16 25 29 2 6 2 9 2 21 0 24-3 35-15 46-15 15-29 20-59 21l-19 1c-1 1-2 9-2 32v33c-1 2-3 2-17 2l-16-1zm73-98c11-5 19-16 20-28 1-15-3-27-12-32-6-4-13-5-31-6h-16v67c0 1 4 2 17 1 14 0 17 0 22-2zm85 98-1-97v-97l17 1h17l1 3v80l2 79 38 1h37v14l-1 15c-2 2-8 2-56 2l-54-1zm136-1 19-56 44-125c5-12 3-12 24-12l19 1 7 16a5719 5719 0 0 0 59 166c4 9 4 11 3 11h-34c-3-2-4-5-11-28-5-15-6-17-8-18a636 636 0 0 0-72 1l-9 23-8 22-17 1c-15 0-16 0-16-2zm102-112a1018 1018 0 0 0-16-42l-27 80 28 1h28zm103 17v-98h39l3 5a12625 12625 0 0 1 80 134c1 1 1-29 1-68l1-69c1-1 4-2 16-2 14 0 16 1 17 2a4008 4008 0 0 1-1 192h-37a9344 9344 0 0 0-83-136c-2-2-2-2-2 67v70h-34zm199 96h-3V559l58 1h58v28l-40 1-41 1v49c1 2 1 2 35 2h35l-1 13v14l-35 1c-34 1-34 1-35 3a354 354 0 0 0 2 50l41 1c30 0 39 1 40 2v27c-1 2-4 2-56 2l-58-1zm191-1-1-81v-79l-27-1-28-1v-16l1-15h140l1 15v16l-26 1h-26v79l-1 82c-1 2-2 2-16 2-15 0-16 0-17-2z" style="fill:#a2a2a2;fill-opacity:1;stroke-width:.982097;stroke:none;stroke-opacity:1"/>
</svg>
